#!OML:ASF E:\Steps\Project 1\Capture day 1\Session 2\Subject.ASF
:FULLY-SPECIFIED
:DEGREES
457
root 12.4133 18.8279 7.7557 -154.106 1.3412 176.432
lowerback -29.2425 -3.19609 -7.46031
upperback -0.902071 -0.938226 -0.49268
thorax 14.568 -0.620897 3.22118
lowerneck -3.91972 -3.22185 -0.380544
upperneck 10.0294 -4.31816 2.52071
head 4.0459 -1.93288 0.707385
rclavicle 1.05853e-014 1.96797e-014
rhumerus -34.0265 -26.6841 -74.7118
rradius 23.3215
rwrist 5.65817
rhand -9.31686 -412.775
rfingers 7.12502
rthumb 16.6414 -82.082
lclavicle 1.05853e-014 1.96797e-014
lhumerus -24.7441 6.55836 81.2437
lradius 19.1566
lwrist -6.211
lhand -22.141 -11.7409
lfingers 7.12502
lthumb 4.2726 18.196
rfemur -23.363 6.56174 18.2321
rtibia 7.24798
rfoot -18.1547 -1.78694
rtoes -17.3286
lfemur -23.7418 -9.4639 -23.621
ltibia 9.42812
lfoot -8.23412 -3.37534
ltoes -17.9915
458
root 12.4258 18.8269 7.74002 -154.037 1.29332 176.291
lowerback -29.3658 -3.29684 -7.85373
upperback -1.01478 -0.895245 -0.513483
thorax 14.491 -0.607643 3.42725
lowerneck -4.08193 -3.35002 -0.268657
upperneck 9.93547 -4.50692 2.50897
head 4.04407 -2.02609 0.672178
rclavicle 8.69683e-015 -1.45113e-014
rhumerus -33.9047 -26.6892 -74.7877
rradius 23.0296
rwrist 5.82853
rhand -9.21843 -412.412
rfingers 7.12502
rthumb 16.7362 -81.7105
lclavicle 8.69683e-015 -1.45113e-014
lhumerus -24.4387 5.97671 81.7449
lradius 19.5149
lwrist -5.72756
lhand -22.5734 -11.6794
lfingers 7.12502
lthumb 3.85502 18.2654
rfemur -23.4096 6.8166 18.022
rtibia 7.2844
rfoot -18.2087 -2.18901
rtoes -17.5858
lfemur -23.7982 -9.36471 -23.7019
ltibia 9.44828
lfoot -8.216 -3.60742
ltoes -17.4458
459
root 12.4261 18.8251 7.72974 -154.094 0.954877 176.427
lowerback -29.3441 -3.25167 -7.68898
upperback -1.09421 -0.872924 -0.57466
thorax 14.3842 -0.573031 3.28263
lowerneck -4.0936 -3.40093 -0.223289
upperneck 9.85041 -4.59921 2.73452
head 4.02365 -2.06032 0.734924
rclavicle -1.52567e-014 -5.12864e-014
rhumerus -33.7759 -27.2764 -74.74
rradius 22.5721
rwrist 6.51477
rhand -8.98824 -411.978
rfingers 7.12502
rthumb 16.9578 -81.2578
lclavicle -1.52567e-014 -5.12864e-014
lhumerus -24.1166 5.30298 82.1458
lradius 19.928
lwrist -5.10106
lhand -22.6875 -11.4958
lfingers 7.12502
lthumb 3.74486 18.451
rfemur -23.159 6.98761 18.2378
rtibia 7.12373
rfoot -18.3362 -2.56789
rtoes -17.2041
lfemur -23.7891 -9.3821 -23.4869
ltibia 9.63412
lfoot -8.25168 -3.84964
ltoes -17.314
460
root 12.43 18.8251 7.71805 -154.037 0.836154 176.273
lowerback -29.544 -2.49463 -8.39763
upperback -1.13481 -1.04876 -0.660161
thorax 14.3783 -1.28509 3.34982
lowerneck -3.93652 -3.35876 -0.308539
upperneck 9.71713 -4.55021 2.95172
head 3.95402 -2.03187 0.827492
rclavicle -9.93923e-015 2.14687e-014
rhumerus -33.5642 -27.3955 -74.8906
rradius 22.3346
rwrist 6.78085
rhand -9.00057 -412.144
rfingers 7.12502
rthumb 16.9459 -81.4246
lclavicle -9.93923e-015 2.14687e-014
lhumerus -23.7503 4.65907 82.5923
lradius 20.3148
lwrist -4.56855
lhand -22.4195 -11.4167
lfingers 7.12502
lthumb 4.00373 18.5254
rfemur -23.1279 7.11783 18.0397
rtibia 7.05089
rfoot -18.3446 -2.91681
rtoes -17.2499
lfemur -23.8893 -9.46596 -23.6054
ltibia 9.78695
lfoot -8.31714 -4.0073
ltoes -17.1474
461
root 12.4281 18.8225 7.70785 -154.109 0.71432 176.409
lowerback -29.5931 -2.46346 -8.32499
upperback -1.17479 -1.04018 -0.61896
thorax 14.3541 -1.27781 3.35815
lowerneck -3.80484 -3.25122 -0.406188
upperneck 9.54633 -4.40248 3.0159
head 3.86949 -1.96496 0.875268
rclavicle 6.11263e-015 -3.77691e-014
rhumerus -33.3366 -26.9285 -75.1998
rradius 22.3307
rwrist 6.53185
rhand -9.02247 -412.406
rfingers 7.12502
rthumb 16.9248 -81.6882
lclavicle 6.11263e-015 -3.77691e-014
lhumerus -23.4386 3.87982 83.1438
lradius 20.6796
lwrist -4.02756
lhand -21.9973 -11.6796
lfingers 7.12502
lthumb 4.41133 18.2545
rfemur -22.9676 7.0307 18.2623
rtibia 7.0164
rfoot -18.2774 -2.88025
rtoes -17.5683
lfemur -23.8225 -9.54014 -23.4292
ltibia 9.8824
lfoot -8.43748 -3.99578
ltoes -16.76
462
root 12.4254 18.8192 7.69492 -154.201 0.696019 176.525
lowerback -29.6062 -2.40769 -8.26661
upperback -1.21126 -0.994768 -0.597947
thorax 14.3128 -1.2539 3.36762
lowerneck -3.86943 -3.18553 -0.479407
upperneck 9.41475 -4.31784 3.05515
head 3.83716 -1.92889 0.904266
rclavicle -1.2424e-014 -2.50469e-014
rhumerus -33.0716 -26.4069 -75.5352
rradius 22.334
rwrist 6.31587
rhand -9.00863 -412.272
rfingers 7.12502
rthumb 16.9381 -81.5536
lclavicle -1.2424e-014 -2.50469e-014
lhumerus -23.0945 3.37588 83.6377
lradius 20.9137
lwrist -3.78759
lhand -21.3427 -11.5066
lfingers 7.12502
lthumb 5.04344 18.4133
rfemur -22.8307 7.09116 18.4186
rtibia 7.06843
rfoot -18.3577 -2.84598
rtoes -17.1525
lfemur -23.6791 -9.54423 -23.3337
ltibia 9.90416
lfoot -8.50073 -3.88189
ltoes -16.6112
463
root 12.4235 18.8143 7.68203 -154.133 0.677126 176.555
lowerback -29.7906 -2.39786 -8.25935
upperback -1.26103 -0.98237 -0.617749
thorax 14.3352 -1.25338 3.3412
lowerneck -3.96372 -3.16381 -0.622096
upperneck 9.22577 -4.30041 3.23003
head 3.79819 -1.92394 0.986976
rclavicle 4.47266e-016 4.49253e-014
rhumerus -32.7463 -26.3022 -75.7833
rradius 22.1841
rwrist 6.52948
rhand -9.07818 -411.714
rfingers 7.12502
rthumb 16.8712 -81.0009
lclavicle 4.47266e-016 4.49253e-014
lhumerus -22.6753 3.16343 84.0081
lradius 21.0294
lwrist -3.84711
lhand -21.3004 -11.2742
lfingers 7.12502
lthumb 5.08434 18.6448
rfemur -22.8681 7.0598 18.4739
rtibia 7.10557
rfoot -18.5086 -2.80381
rtoes -16.5522
lfemur -23.703 -9.62495 -23.3085
ltibia 9.91936
lfoot -8.52534 -3.81525
ltoes -16.5699
